<svg width="40" height="36" viewBox="0 0 40 36" fill="none" xmlns="http://www.w3.org/2000/svg">
<path d="M20.0712 33.6555L4.67091 17.5935C3.31742 16.2411 2.42409 14.4968 2.11763 12.6081C1.81116 10.7195 2.10712 8.78227 2.96352 7.07126V7.07126C3.6093 5.78006 4.55264 4.66079 5.71582 3.80567C6.87899 2.95054 8.22871 2.38404 9.65375 2.15283C11.0788 1.92162 12.5384 2.03233 13.9123 2.47583C15.2861 2.91933 16.535 3.68293 17.5559 4.70372L20.0712 7.21742L22.5865 4.70372C23.6074 3.68293 24.8562 2.91933 26.2301 2.47583C27.6039 2.03233 29.0635 1.92162 30.4886 2.15283C31.9136 2.38404 33.2633 2.95054 34.4265 3.80567C35.5897 4.66079 36.533 5.78006 37.1788 7.07126C38.034 8.78161 38.3295 10.7177 38.0234 12.6053C37.7172 14.4929 36.825 16.2363 35.473 17.5887L20.0712 33.6555Z" stroke="#5D5A88" stroke-width="3.01174" stroke-linecap="round" stroke-linejoin="round"/>
</svg>
